<?xml version="1.0" encoding="UTF-8"?>
<svg xmlns="http://www.w3.org/2000/svg" xmlns:xlink="http://www.w3.org/1999/xlink" width="32px" height="40px" viewBox="0 0 32 39" version="1.1">
<g id="surface1">
<path style=" stroke:none;fill-rule:nonzero;fill:rgb(100%,100%,100%);fill-opacity:1;" d="M 31.824219 1.304688 C 31.824219 1.304688 29.058594 2.398438 26.09375 2.765625 C 24.304688 2.984375 21.699219 2.402344 19.925781 1.910156 L 19.925781 0.144531 C 19.925781 0.0664062 19.859375 0 19.777344 0 L 16.695312 0 C 16.617188 0 16.550781 0.0664062 16.550781 0.144531 L 16.550781 1.964844 C 16.339844 2.058594 16.148438 2.144531 16.003906 2.207031 C 15.898438 2.164062 15.773438 2.109375 15.636719 2.050781 L 15.636719 0.144531 C 15.636719 0.105469 15.617188 0.0703125 15.589844 0.0429688 C 15.5625 0.015625 15.523438 0 15.484375 0 L 12.402344 0 C 12.320312 0 12.257812 0.0664062 12.257812 0.144531 L 12.257812 1.859375 C 10.484375 2.359375 7.761719 2.992188 5.90625 2.761719 C 2.941406 2.398438 0.175781 1.304688 0.175781 1.304688 C 0.175781 1.304688 -0.707031 5.195312 1.660156 10.40625 C 2.59375 12.46875 3.113281 12.980469 3.113281 12.980469 L 5.082031 12.617188 C 5.082031 12.617188 4.589844 10.488281 4.511719 9.285156 C 4.402344 7.710938 5.847656 4.683594 9.554688 4.609375 C 10.464844 4.589844 11.375 4.695312 12.257812 4.929688 L 12.257812 32.09375 C 12.257812 32.113281 12.261719 32.132812 12.269531 32.152344 C 12.160156 32.445312 12.105469 32.757812 12.113281 33.074219 L 12.113281 33.820312 L 13.273438 33.820312 L 13.273438 33 C 13.273438 32.449219 13.519531 32.242188 13.910156 32.242188 C 14.300781 32.242188 14.546875 32.429688 14.546875 33.117188 C 14.546875 35.335938 12.113281 35.710938 12.113281 37.96875 L 12.113281 38.914062 L 15.664062 38.914062 L 15.664062 37.816406 L 13.339844 37.816406 C 13.332031 37.761719 13.328125 37.703125 13.328125 37.648438 C 13.328125 36.386719 15.777344 35.488281 15.777344 33.074219 C 15.78125 32.757812 15.730469 32.445312 15.621094 32.152344 C 15.628906 32.132812 15.632812 32.113281 15.632812 32.09375 L 15.632812 4.828125 L 16 4.769531 L 16.402344 4.835938 C 16.449219 4.84375 16.5 4.855469 16.550781 4.867188 L 16.550781 32.011719 C 16.386719 32.339844 16.308594 32.707031 16.316406 33.074219 L 16.316406 33.316406 C 16.316406 34.074219 16.5625 34.589844 17.078125 34.859375 C 16.539062 35.15625 16.316406 35.726562 16.316406 36.464844 L 16.316406 37.0625 C 16.316406 38.292969 16.996094 38.996094 18.238281 38.996094 C 19.480469 38.996094 20.160156 38.292969 20.160156 37.0625 L 20.160156 36.464844 C 20.160156 35.726562 19.9375 35.15625 19.402344 34.859375 C 19.90625 34.585938 20.160156 34.070312 20.160156 33.316406 L 20.160156 33.074219 C 20.171875 32.707031 20.089844 32.339844 19.929688 32.011719 L 19.929688 4.882812 C 20.753906 4.683594 21.597656 4.59375 22.449219 4.613281 C 26.152344 4.6875 27.597656 7.710938 27.492188 9.289062 C 27.410156 10.492188 26.925781 12.617188 26.925781 12.617188 L 28.890625 12.984375 C 28.890625 12.984375 29.410156 12.46875 30.34375 10.40625 C 32.707031 5.199219 31.824219 1.304688 31.824219 1.304688 Z M 18.929688 37.035156 C 18.917969 37.714844 18.628906 37.902344 18.238281 37.902344 C 17.847656 37.902344 17.546875 37.714844 17.546875 37.035156 L 17.546875 36.320312 C 17.546875 35.722656 17.800781 35.453125 18.238281 35.453125 C 18.671875 35.453125 18.929688 35.71875 18.929688 36.320312 Z M 18.929688 33.546875 C 18.929688 34.160156 18.628906 34.359375 18.238281 34.359375 C 17.847656 34.359375 17.546875 34.160156 17.546875 33.546875 L 17.546875 33.117188 C 17.546875 32.425781 17.847656 32.238281 18.238281 32.238281 C 18.628906 32.238281 18.929688 32.425781 18.929688 33.117188 Z M 18.929688 33.546875 "/>
</g>
</svg>
