<?xml version="1.0" standalone="no"?>
<!DOCTYPE svg PUBLIC "-//W3C//DTD SVG 20010904//EN"
 "http://www.w3.org/TR/2001/REC-SVG-20010904/DTD/svg10.dtd">
<svg version="1.0" xmlns="http://www.w3.org/2000/svg"
 width="24.000000pt" height="24.000000pt" viewBox="0 0 24.000000 24.000000"
 preserveAspectRatio="xMidYMid meet">

<g transform="translate(0.000000,24.000000) scale(0.100000,-0.100000)"
fill="#000000" stroke="none">
<path d="M72 218 c-26 -26 -7 -62 26 -51 16 6 16 38 -1 52 -10 8 -17 7 -25 -1z"/>
<path d="M142 218 c-26 -26 -7 -62 26 -51 16 6 16 38 -1 52 -10 8 -17 7 -25
-1z"/>
<path d="M10 155 c-16 -20 -6 -45 19 -45 23 0 32 18 19 43 -11 21 -22 22 -38
2z"/>
<path d="M192 153 c-13 -25 -4 -43 19 -43 25 0 35 25 19 45 -16 20 -27 19 -38
-2z"/>
<path d="M67 112 c-63 -64 -43 -102 53 -102 62 0 90 15 90 49 0 21 -70 91 -91
91 -8 0 -32 -17 -52 -38z m48 -12 c-20 -22 -8 -49 16 -34 9 5 8 9 -7 15 -18 6
-18 7 -1 14 10 4 23 3 30 -4 8 -8 6 -17 -11 -33 l-22 -22 -22 21 c-21 22 -21
23 -3 43 10 11 23 20 28 20 6 0 2 -9 -8 -20z"/>
</g>
</svg>
