<svg id="Layer_1" data-name="Layer 1" xmlns="http://www.w3.org/2000/svg" viewBox="0 0 365.94 454.32"><defs><style>.cls-1{fill:#fff;}</style></defs><path class="cls-1" d="M364.09,15.21s-31.65,12.73-65.59,17C278,34.75,248.18,28,227.9,22.24V1.68A1.68,1.68,0,0,0,226.22,0H190.94a1.68,1.68,0,0,0-1.67,1.68V22.91C186.85,24,184.69,25,183,25.72c-1.21-.52-2.63-1.13-4.21-1.85V1.68A1.68,1.68,0,0,0,177.08,0H141.8a1.68,1.68,0,0,0-1.67,1.68v20C119.85,27.5,88.7,34.84,67.43,32.18c-33.93-4.24-65.58-17-65.58-17s-10.12,45.36,17,106.05c10.7,24,16.64,30,16.64,30L58,147s-5.61-24.82-6.53-38.83C50.25,89.82,66.78,54.58,109.2,53.71a109.6,109.6,0,0,1,30.93,3.7V373.89a1.7,1.7,0,0,0,.13.64,30,30,0,0,0-1.78,10.75V394h13.29v-9.59c0-6.39,2.82-8.82,7.29-8.82s7.29,2.17,7.29,10.22c0,25.83-27.87,30.18-27.87,56.51v11h40.65V440.51H152.54a9.54,9.54,0,0,1-.13-1.92c0-14.7,28-25.18,28-53.31a30,30,0,0,0-1.78-10.75,1.7,1.7,0,0,0,.13-.64V56.26l4.21-.7,4.6.77c.56.09,1.13.22,1.7.37V372.9a26.65,26.65,0,0,0-2.67,12.38v2.82c0,8.82,2.81,14.83,8.69,18-6.14,3.45-8.69,10.1-8.69,18.67v7c0,14.32,7.79,22.5,22,22.5s22-8.18,22-22.5v-7c0-8.57-2.55-15.22-8.69-18.67,5.75-3.19,8.69-9.2,8.69-18v-2.82a26.65,26.65,0,0,0-2.67-12.38v-316a109,109,0,0,1,28.84-3.17c42.42.87,58.95,36.11,57.75,54.49C313.58,122.21,308,147,308,147l22.51,4.24s5.93-6,16.64-30C374.2,60.57,364.09,15.21,364.09,15.21ZM216.51,431.43c-.13,7.93-3.45,10.1-7.93,10.1s-7.92-2.17-7.92-10.1v-8.31c0-7,2.94-10.1,7.92-10.1s7.93,3.07,7.93,10.1Zm0-40.65c0,7.16-3.45,9.46-7.93,9.46s-7.92-2.3-7.92-9.46v-5c0-8.05,3.45-10.22,7.92-10.22s7.93,2.17,7.93,10.22Z"/></svg>