<?xml version="1.0" standalone="no"?>
<!DOCTYPE svg PUBLIC "-//W3C//DTD SVG 20010904//EN"
 "http://www.w3.org/TR/2001/REC-SVG-20010904/DTD/svg10.dtd">
<svg version="1.0" xmlns="http://www.w3.org/2000/svg"
 width="24.000000pt" height="24.000000pt" viewBox="0 0 24.000000 24.000000"
 preserveAspectRatio="xMidYMid meet">

<g transform="translate(0.000000,24.000000) scale(0.100000,-0.100000)"
fill="#000000" stroke="none">
<path d="M100 310 c0 -5 16 -10 36 -10 21 0 33 4 29 10 -3 6 -19 10 -36 10
-16 0 -29 -4 -29 -10z"/>
<path d="M100 280 c0 -5 14 -10 30 -10 17 0 30 5 30 10 0 6 -13 10 -30 10 -16
0 -30 -4 -30 -10z"/>
<path d="M0 265 c0 -13 9 -16 43 -13 23 2 42 8 42 13 0 6 -19 11 -42 13 -34 3
-43 0 -43 -13z"/>
<path d="M220 269 c-14 -4 -46 -7 -72 -8 l-48 -1 0 -101 0 -100 33 3 32 3 3
77 3 78 44 11 c25 6 45 17 45 25 0 18 -11 22 -40 13z"/>
<path d="M0 149 l0 -90 43 3 42 3 3 88 3 87 -46 0 -45 0 0 -91z m70 46 c0 -20
-5 -25 -25 -25 -20 0 -25 5 -25 25 0 20 5 25 25 25 20 0 25 -5 25 -25z"/>
<path d="M205 215 l-30 -14 30 6 c17 3 39 10 50 14 l20 8 -20 0 c-11 0 -33 -6
-50 -14z"/>
<path d="M212 198 c-23 -8 -31 -16 -27 -26 3 -8 10 -34 17 -59 8 -34 14 -43
27 -38 9 4 28 9 44 12 31 6 31 3 14 68 -14 54 -23 59 -75 43z"/>
<path d="M251 71 c-14 -4 -27 -13 -29 -20 -3 -9 2 -11 14 -8 11 4 31 9 47 13
15 3 27 10 27 15 0 10 -23 10 -59 0z"/>
<path d="M18 43 c12 -2 32 -2 45 0 12 2 2 4 -23 4 -25 0 -35 -2 -22 -4z"/>
<path d="M113 43 c9 -2 25 -2 35 0 9 3 1 5 -18 5 -19 0 -27 -2 -17 -5z"/>
<path d="M258 37 c-25 -8 -35 -16 -30 -24 10 -16 92 4 92 23 0 16 -12 17 -62
1z"/>
<path d="M0 14 c0 -12 9 -14 42 -12 59 4 63 28 4 28 -35 0 -46 -4 -46 -16z"/>
<path d="M100 14 c0 -11 8 -14 32 -12 46 4 49 28 4 28 -26 0 -36 -4 -36 -16z"/>
</g>
</svg>
