<?xml version="1.0" encoding="utf-8"?>
<!-- Generator: Adobe Illustrator 25.3.1, SVG Export Plug-In . SVG Version: 6.00 Build 0)  -->
<svg version="1.1" id="Layer_1" xmlns="http://www.w3.org/2000/svg" xmlns:xlink="http://www.w3.org/1999/xlink" x="0px" y="0px"
	 viewBox="0 0 150 24" style="enable-background:new 0 0 150 24;" xml:space="preserve">
<style type="text/css">
	.st0{fill:#FFFFFF;}
</style>
<g>
	<path class="st0" d="M6.7,5.6c2.1,0,3,1.2,3,3.3v6.7c0,2-0.9,3.3-3,3.3H3.6V5.6H6.7z M6.7,17.5c1.1,0,1.6-0.7,1.6-1.9V8.8
		c0-1.2-0.5-1.9-1.6-1.9H5.1v10.5H6.7z"/>
	<path class="st0" d="M16.3,11.4v1.3H13v4.7h4v1.3h-5.4V5.6H17v1.3h-4v4.5H16.3z"/>
	<path class="st0" d="M24.5,8.8v0.4h-1.4V8.7c0-1.2-0.5-1.9-1.5-1.9s-1.5,0.7-1.5,1.9c0,3,4.4,3.2,4.4,7c0,2-1,3.3-3,3.3
		c-2,0-3-1.3-3-3.3v-0.8H20v0.8c0,1.2,0.5,1.9,1.5,1.9s1.5-0.7,1.5-1.9c0-2.9-4.4-3.2-4.4-6.9c0-2,0.9-3.3,2.9-3.3
		C23.6,5.5,24.5,6.8,24.5,8.8z"/>
	<path class="st0" d="M27.8,5.6v13.2h-1.5V5.6H27.8z"/>
	<path class="st0" d="M35.6,8.8v1.1h-1.4V8.7c0-1.2-0.5-1.9-1.5-1.9c-1.1,0-1.5,0.7-1.5,1.9v7c0,1.2,0.5,1.9,1.5,1.9
		c1.1,0,1.5-0.7,1.5-1.9V13h-1.4v-1.3h2.8v3.9c0,2-0.9,3.3-3,3.3c-2,0-3-1.3-3-3.3V8.8c0-2,0.9-3.3,3-3.3
		C34.6,5.5,35.6,6.8,35.6,8.8z"/>
	<path class="st0" d="M38.7,18.8h-1.3V5.6h1.9l3.1,9.5V5.6h1.3v13.2h-1.5L38.7,8.1V18.8z"/>
	<path class="st0" d="M50.3,11.4v1.3h-3.2v4.7h4v1.3h-5.4V5.6h5.4v1.3h-4v4.5H50.3z"/>
	<path class="st0" d="M56,5.6c2.1,0,3,1.2,3,3.3v6.7c0,2-0.9,3.3-3,3.3h-3.1V5.6H56z M56,17.5c1.1,0,1.6-0.7,1.6-1.9V8.8
		c0-1.2-0.5-1.9-1.6-1.9h-1.6v10.5H56z"/>
	<path class="st0" d="M67.2,5.6c2.1,0,2.9,1,2.9,2.9v0.6c0,1.4-0.4,2.3-1.5,2.6c1.3,0.4,1.8,1.4,1.8,2.8v1.1c0,2-1,3.1-3,3.1h-3V5.6
		H67.2z M66.8,11.2c1.2,0,1.8-0.4,1.8-1.8V8.7c0-1.2-0.4-1.7-1.5-1.7h-1.5v4.3H66.8z M67.2,17.5c1.1,0,1.6-0.6,1.6-1.8v-1.2
		c0-1.5-0.6-2-1.8-2h-1.3v4.9H67.2z"/>
	<path class="st0" d="M74.1,14.1l-2.8-8.5h1.5l2.1,6.5L77,5.6h1.4l-2.8,8.5v4.7h-1.5V14.1z"/>
	<path class="st0" d="M89.1,8.8v1.1h-1.4V8.7c0-1.2-0.5-1.9-1.5-1.9c-1.1,0-1.5,0.7-1.5,1.9v7c0,1.2,0.5,1.9,1.5,1.9
		c1.1,0,1.5-0.7,1.5-1.9V13h-1.4v-1.3h2.8v3.9c0,2-0.9,3.3-3,3.3c-2,0-3-1.3-3-3.3V8.8c0-2,0.9-3.3,3-3.3
		C88.2,5.5,89.1,6.8,89.1,8.8z"/>
	<path class="st0" d="M95.7,11.4v1.3h-3.2v4.7h4v1.3H91V5.6h5.4v1.3h-4v4.5H95.7z"/>
	<path class="st0" d="M101.5,13.1l-2.2,5.7h-1.4l2.7-6.8l-2.5-6.4h1.5l2,5.3l2.1-5.3h1.4l-2.5,6.4l2.6,6.8h-1.5L101.5,13.1z"/>
	<path class="st0" d="M106.5,8.8c0-2,1-3.3,3-3.3c2,0,3,1.3,3,3.3v6.8c0,2-1,3.3-3,3.3c-2,0-3-1.3-3-3.3V8.8z M108,15.7
		c0,1.2,0.5,1.9,1.6,1.9c1.1,0,1.6-0.7,1.6-1.9v-7c0-1.2-0.5-1.9-1.6-1.9c-1.1,0-1.6,0.7-1.6,1.9V15.7z"/>
	<path class="st0" d="M117.5,5.6c2.1,0,3,1.2,3,3.3v6.7c0,2-0.9,3.3-3,3.3h-3.1V5.6H117.5z M117.5,17.5c1.1,0,1.6-0.7,1.6-1.9V8.8
		c0-1.2-0.5-1.9-1.6-1.9h-1.6v10.5H117.5z"/>
	<path class="st0" d="M125.3,5.6c2.1,0,2.9,1.1,2.9,3v1.1c0,1.5-0.5,2.4-1.6,2.7c1.2,0.4,1.7,1.3,1.7,2.8v2.1c0,0.6,0,1.1,0.3,1.6
		h-1.5c-0.2-0.4-0.2-0.7-0.2-1.6v-2.1c0-1.5-0.7-2-1.9-2h-1v5.6h-1.5V5.6H125.3z M124.9,11.8c1.2,0,1.9-0.4,1.9-1.8V8.8
		c0-1.2-0.4-1.8-1.5-1.8h-1.4v4.9H124.9z"/>
	<path class="st0" d="M130.2,8.8c0-2,1-3.3,3-3.3c2,0,3,1.3,3,3.3v6.8c0,2-1,3.3-3,3.3c-2,0-3-1.3-3-3.3V8.8z M131.6,15.7
		c0,1.2,0.5,1.9,1.6,1.9c1.1,0,1.6-0.7,1.6-1.9v-7c0-1.2-0.5-1.9-1.6-1.9c-1.1,0-1.6,0.7-1.6,1.9V15.7z"/>
	<path class="st0" d="M142.9,18.8h-1.4l-2.2-10.5v10.5h-1.3V5.6h2.1l2.2,10.5l2.1-10.5h2.1v13.2H145V8.2L142.9,18.8z"/>
</g>
</svg>
